<?xml version="1.0" encoding="UTF-8"?>
<svg width="963px" height="359px" viewBox="0 0 963 359" version="1.1" xmlns="http://www.w3.org/2000/svg" xmlns:xlink="http://www.w3.org/1999/xlink">
    <!-- Generator: Sketch 48.2 (47327) - http://www.bohemiancoding.com/sketch -->
    <title>logo</title>
    <desc>Created with Sketch.</desc>
    <defs></defs>
    <g id="Page-1" stroke="none" stroke-width="1" fill="none" fill-rule="evenodd">
        <g id="logo">
            <g id="Group" fill-rule="nonzero">
                <circle id="Oval" fill="#324A5E" cx="179.5" cy="179.5" r="179.5"></circle>
                <polygon id="Shape" fill="#ACB3BA" points="99.334 273 93.199 267.279 172.602 180.832 81 129.345 85.09 122 186 178.713"></polygon>
                <g transform="translate(61.000000, 103.000000)" fill="#FFFFFF" id="Oval">
                    <ellipse cx="22.167" cy="22.227" rx="21.533" ry="21.661"></ellipse>
                    <ellipse cx="35.326" cy="166.985" rx="21.533" ry="21.661"></ellipse>
                </g>
                <polygon id="Shape" fill="#ACB3BA" points="247.134 280 175 179.852 225.118 73 232.763 76.529 184.769 179.005 254 275.13"></polygon>
                <g transform="translate(137.000000, 137.000000)" fill="#FFFFFF" id="Oval">
                    <ellipse cx="112.948" cy="138.265" rx="21.628" ry="21.664"></ellipse>
                    <ellipse cx="42.408" cy="42.478" rx="41.772" ry="41.841"></ellipse>
                </g>
                <circle id="Oval" fill="#FF7058" cx="179" cy="179" r="30"></circle>
                <circle id="Oval" fill="#FFFFFF" cx="228.5" cy="74.5" r="21.5"></circle>
                <circle id="Oval" fill="#2C9984" cx="228.5" cy="74.5" r="15.5"></circle>
                <circle id="Oval" fill="#84DBFF" cx="250.5" cy="275.5" r="15.5"></circle>
                <circle id="Oval" fill="#54C0EB" cx="96.5" cy="270.5" r="15.5"></circle>
                <circle id="Oval" fill="#FFD05B" cx="83.5" cy="125.5" r="15.5"></circle>
            </g>
            <path d="M437.64,230.48 C433.159978,230.48 429.170017,229.920006 425.67,228.8 C422.169983,227.679994 419.13668,226.210009 416.57,224.39 C414.00332,222.569991 411.833342,220.470012 410.06,218.09 C408.286658,215.709988 406.933338,213.306679 406,210.88 L422.38,203.88 C423.966675,207.426684 426.089987,210.063325 428.75,211.79 C431.410013,213.516675 434.373317,214.38 437.64,214.38 C441.000017,214.38 443.65999,213.773339 445.62,212.56 C447.58001,211.346661 448.56,209.900008 448.56,208.22 C448.56,206.353324 447.743341,204.836673 446.11,203.67 C444.476658,202.503328 441.653353,201.453338 437.64,200.52 L427.98,198.42 C425.833323,197.953331 423.616678,197.206672 421.33,196.18 C419.043322,195.153328 416.966676,193.846675 415.1,192.26 C413.233324,190.673325 411.693339,188.760011 410.48,186.52 C409.266661,184.279989 408.66,181.666682 408.66,178.68 C408.66,175.319983 409.383326,172.333346 410.83,169.72 C412.276674,167.106654 414.259987,164.890009 416.78,163.07 C419.300013,161.249991 422.263316,159.850005 425.67,158.87 C429.076684,157.889995 432.73998,157.4 436.66,157.4 C443.193366,157.4 449.026641,158.683321 454.16,161.25 C459.293359,163.816679 463.073321,167.899972 465.5,173.5 L449.68,179.94 C448.373327,177.23332 446.460013,175.273339 443.94,174.06 C441.419987,172.846661 438.900013,172.24 436.38,172.24 C433.766654,172.24 431.48001,172.776661 429.52,173.85 C427.55999,174.923339 426.58,176.299992 426.58,177.98 C426.58,179.566675 427.396659,180.826662 429.03,181.76 C430.663342,182.693338 432.879986,183.53333 435.68,184.28 L446.18,186.8 C453.180035,188.480008 458.383316,191.163315 461.79,194.85 C465.196684,198.536685 466.9,202.899975 466.9,207.94 C466.9,210.926682 466.200007,213.77332 464.8,216.48 C463.399993,219.18668 461.416679,221.58999 458.85,223.69 C456.283321,225.79001 453.203351,227.446661 449.61,228.66 C446.016649,229.873339 442.026689,230.48 437.64,230.48 Z M543.9,210.74 C540.913318,216.526696 536.736694,221.263315 531.37,224.95 C526.003307,228.636685 519.306707,230.48 511.28,230.48 C505.959973,230.48 501.083355,229.570009 496.65,227.75 C492.216645,225.929991 488.390016,223.386683 485.17,220.12 C481.949984,216.853317 479.430009,213.003355 477.61,208.57 C475.789991,204.136644 474.88,199.260027 474.88,193.94 C474.88,188.619973 475.789991,183.720022 477.61,179.24 C479.430009,174.759978 481.949984,170.910016 485.17,167.69 C488.390016,164.469984 492.216645,161.950009 496.65,160.13 C501.083355,158.309991 505.959973,157.4 511.28,157.4 C519.213373,157.4 525.88664,159.219982 531.3,162.86 C536.71336,166.500018 540.679987,171.213304 543.2,177 L526.4,184 C524.813325,180.826651 522.783346,178.423341 520.31,176.79 C517.836654,175.156658 514.733352,174.34 511,174.34 C508.573321,174.34 506.286677,174.806662 504.14,175.74 C501.993323,176.673338 500.103341,177.979992 498.47,179.66 C496.836658,181.340008 495.553338,183.393321 494.62,185.82 C493.686662,188.246679 493.22,190.953318 493.22,193.94 C493.22,196.926682 493.686662,199.633321 494.62,202.06 C495.553338,204.486679 496.836658,206.539992 498.47,208.22 C500.103341,209.900008 501.993323,211.206662 504.14,212.14 C506.286677,213.073338 508.573321,213.54 511,213.54 C514.826686,213.54 518.069987,212.676675 520.73,210.95 C523.390013,209.223325 525.513325,206.726683 527.1,203.46 L543.9,210.74 Z M555.1,128 L573.44,128 L573.44,156.14 L572.32,168.6 L573.44,168.6 C575.40001,165.333317 578.223315,162.650011 581.91,160.55 C585.596685,158.44999 589.726644,157.4 594.3,157.4 C603.166711,157.4 609.723312,160.013307 613.97,165.24 C618.216688,170.466693 620.34,177.606621 620.34,186.66 L620.34,228.24 L602,228.24 L602,188.9 C602,184.139976 600.880011,180.523346 598.64,178.05 C596.399989,175.576654 593.273353,174.34 589.26,174.34 C586.739987,174.34 584.50001,174.876661 582.54,175.95 C580.57999,177.023339 578.92334,178.493324 577.57,180.36 C576.21666,182.226676 575.190003,184.396654 574.49,186.87 C573.789997,189.343346 573.44,191.979986 573.44,194.78 L573.44,228.24 L555.1,228.24 L555.1,128 Z M700.42,211.72 C697.246651,217.320028 692.976694,221.846649 687.61,225.3 C682.243307,228.753351 675.686705,230.48 667.94,230.48 C662.713307,230.48 657.883355,229.570009 653.45,227.75 C649.016645,225.929991 645.166683,223.386683 641.9,220.12 C638.633317,216.853317 636.090009,213.003355 634.27,208.57 C632.449991,204.136644 631.54,199.260027 631.54,193.94 C631.54,188.993309 632.426658,184.303356 634.2,179.87 C635.973342,175.436644 638.446651,171.56335 641.62,168.25 C644.793349,164.93665 648.549978,162.30001 652.89,160.34 C657.230022,158.37999 662.013307,157.4 667.24,157.4 C672.746694,157.4 677.646645,158.309991 681.94,160.13 C686.233355,161.950009 689.826652,164.469984 692.72,167.69 C695.613348,170.910016 697.806659,174.713311 699.3,179.1 C700.793341,183.486689 701.54,188.246641 701.54,193.38 L701.54,195.06 C701.446666,195.620003 701.4,196.133331 701.4,196.6 C701.306666,197.066669 701.26,197.579997 701.26,198.14 L649.6,198.14 C649.973335,200.940014 650.743327,203.343323 651.91,205.35 C653.076672,207.356677 654.523325,209.03666 656.25,210.39 C657.976675,211.74334 659.866656,212.72333 661.92,213.33 C663.973344,213.93667 666.073323,214.24 668.22,214.24 C672.420021,214.24 675.896653,213.283343 678.65,211.37 C681.403347,209.456657 683.573325,207.053348 685.16,204.16 L700.42,211.72 Z M683.76,185.12 C683.666666,183.906661 683.270004,182.553341 682.57,181.06 C681.869996,179.566659 680.84334,178.166673 679.49,176.86 C678.13666,175.553327 676.456677,174.480004 674.45,173.64 C672.443323,172.799996 670.040014,172.38 667.24,172.38 C663.31998,172.38 659.866682,173.499989 656.88,175.74 C653.893318,177.980011 651.793339,181.106647 650.58,185.12 L683.76,185.12 Z M713.3,159.64 L730.52,159.64 L730.52,168.6 L731.64,168.6 C733.786677,165.239983 736.703315,162.533344 740.39,160.48 C744.076685,158.426656 748.159978,157.4 752.64,157.4 C757.866693,157.4 762.253316,158.613321 765.8,161.04 C769.346684,163.466679 771.866659,166.453316 773.36,170 C775.506677,166.546649 778.53998,163.583346 782.46,161.11 C786.38002,158.636654 791.139972,157.4 796.74,157.4 C800.940021,157.4 804.579985,158.07666 807.66,159.43 C810.740015,160.78334 813.283323,162.673321 815.29,165.1 C817.296677,167.526679 818.813328,170.443316 819.84,173.85 C820.866672,177.256684 821.38,180.966647 821.38,184.98 L821.38,228.24 L803.04,228.24 L803.04,188.34 C803.04,179.00662 799.213372,174.34 791.56,174.34 C789.133321,174.34 786.986676,174.876661 785.12,175.95 C783.253324,177.023339 781.690006,178.469991 780.43,180.29 C779.169994,182.110009 778.190003,184.279987 777.49,186.8 C776.789997,189.320013 776.44,192.026652 776.44,194.92 L776.44,228.24 L758.1,228.24 L758.1,188.34 C758.1,179.00662 754.086707,174.34 746.06,174.34 C743.726655,174.34 741.673342,174.876661 739.9,175.95 C738.126658,177.023339 736.633339,178.469991 735.42,180.29 C734.206661,182.110009 733.273337,184.279987 732.62,186.8 C731.966663,189.320013 731.64,192.026652 731.64,194.92 L731.64,228.24 L713.3,228.24 L713.3,159.64 Z M901.46,211.72 C898.286651,217.320028 894.016694,221.846649 888.65,225.3 C883.283307,228.753351 876.726705,230.48 868.98,230.48 C863.753307,230.48 858.923356,229.570009 854.49,227.75 C850.056645,225.929991 846.206683,223.386683 842.94,220.12 C839.673317,216.853317 837.130009,213.003355 835.31,208.57 C833.489991,204.136644 832.58,199.260027 832.58,193.94 C832.58,188.993309 833.466658,184.303356 835.24,179.87 C837.013342,175.436644 839.486651,171.56335 842.66,168.25 C845.833349,164.93665 849.589978,162.30001 853.93,160.34 C858.270022,158.37999 863.053307,157.4 868.28,157.4 C873.786694,157.4 878.686645,158.309991 882.98,160.13 C887.273355,161.950009 890.866652,164.469984 893.76,167.69 C896.653348,170.910016 898.846659,174.713311 900.34,179.1 C901.833341,183.486689 902.58,188.246641 902.58,193.38 L902.58,195.06 C902.486666,195.620003 902.44,196.133331 902.44,196.6 C902.346666,197.066669 902.3,197.579997 902.3,198.14 L850.64,198.14 C851.013335,200.940014 851.783328,203.343323 852.95,205.35 C854.116673,207.356677 855.563325,209.03666 857.29,210.39 C859.016675,211.74334 860.906656,212.72333 862.96,213.33 C865.013344,213.93667 867.113323,214.24 869.26,214.24 C873.460021,214.24 876.936653,213.283343 879.69,211.37 C882.443347,209.456657 884.613325,207.053348 886.2,204.16 L901.46,211.72 Z M884.8,185.12 C884.706666,183.906661 884.310004,182.553341 883.61,181.06 C882.909997,179.566659 881.88334,178.166673 880.53,176.86 C879.17666,175.553327 877.496677,174.480004 875.49,173.64 C873.483323,172.799996 871.080014,172.38 868.28,172.38 C864.35998,172.38 860.906682,173.499989 857.92,175.74 C854.933318,177.980011 852.833339,181.106647 851.62,185.12 L884.8,185.12 Z M914.34,159.64 L931.56,159.64 L931.56,169.16 L932.68,169.16 C933.520004,167.479992 934.639993,165.940007 936.04,164.54 C937.440007,163.139993 939.003325,161.926672 940.73,160.9 C942.456675,159.873328 944.323323,159.080003 946.33,158.52 C948.336677,157.959997 950.31999,157.68 952.28,157.68 C954.706679,157.68 956.783325,157.913331 958.51,158.38 C960.236675,158.846669 961.706661,159.45333 962.92,160.2 L958.02,176.86 C956.899994,176.299997 955.66334,175.856668 954.31,175.53 C952.95666,175.203332 951.30001,175.04 949.34,175.04 C946.819987,175.04 944.533344,175.529995 942.48,176.51 C940.426656,177.490005 938.676674,178.866658 937.23,180.64 C935.783326,182.413342 934.663337,184.489988 933.87,186.87 C933.076663,189.250012 932.68,191.839986 932.68,194.64 L932.68,228.24 L914.34,228.24 L914.34,159.64 Z" id="schemer" fill="#324A5E"></path>
        </g>
    </g>
</svg>